<?xml version="1.0" encoding="UTF-8" standalone="no"?>
<!-- Created with Inkscape (http://www.inkscape.org/) -->

<svg
   width="500"
   height="227"
   id="svg4067"
   version="1.1"
   inkscape:version="1.2.1 (9c6d41e410, 2022-07-14, custom)"
   sodipodi:docname="dsd_logo_dark.svg"
   xmlns:inkscape="http://www.inkscape.org/namespaces/inkscape"
   xmlns:sodipodi="http://sodipodi.sourceforge.net/DTD/sodipodi-0.dtd"
   xmlns="http://www.w3.org/2000/svg"
   xmlns:svg="http://www.w3.org/2000/svg"
   xmlns:rdf="http://www.w3.org/1999/02/22-rdf-syntax-ns#"
   xmlns:cc="http://creativecommons.org/ns#"
   xmlns:dc="http://purl.org/dc/elements/1.1/">
  <defs
     id="defs4069" />
  <sodipodi:namedview
     inkscape:document-units="in"
     pagecolor="#ffffff"
     bordercolor="#666666"
     borderopacity="1.0"
     inkscape:pageopacity="0.0"
     inkscape:pageshadow="2"
     inkscape:zoom="1.0921799"
     inkscape:cx="281.08922"
     inkscape:cy="75.537006"
     inkscape:current-layer="layer1"
     id="namedview4071"
     showgrid="false"
     units="in"
     fit-margin-top="0"
     fit-margin-left="0"
     fit-margin-right="0"
     fit-margin-bottom="0"
     inkscape:window-width="735"
     inkscape:window-height="736"
     inkscape:window-x="0"
     inkscape:window-y="0"
     inkscape:window-maximized="1"
     inkscape:showpageshadow="2"
     inkscape:pagecheckerboard="0"
     inkscape:deskcolor="#d1d1d1" />
  <metadata
     id="metadata4073">
    <rdf:RDF>
      <cc:Work
         rdf:about="">
        <dc:format>image/svg+xml</dc:format>
        <dc:type
           rdf:resource="http://purl.org/dc/dcmitype/StillImage" />
      </cc:Work>
    </rdf:RDF>
  </metadata>
  <g
     inkscape:label="Layer 1"
     inkscape:groupmode="layer"
     id="layer1"
     transform="translate(-139.76722,-158.26227)">
    <g
       id="g638"
       transform="matrix(1.0312737,0,0,1.0583746,-13.459074,-27.716735)"
       style="fill:#1d2021;fill-opacity:1">
      <path
         inkscape:connector-curvature="0"
         d="m 257.30119,278.6693 c 0,-54.44307 -17.09724,-83.2638 -49.8454,-83.2638 -10.6064,0 -16.12126,4.12733 -16.6504,17.79101 -1.71678,44.83616 -1.71678,100.99601 0,141.0346 0.52962,12.14681 4.40954,17.96739 16.6504,17.96739 32.95981,0 49.8454,-31.53699 49.8454,-93.5292 l 41.76713,3.91567 c 0,70.36444 -37.80442,103.94747 -100.81963,103.94747 h -49.66902 c 4.00974,-50.53916 5.3032,-151.61749 0,-205.83716 h 49.06931 c 56.66549,0 101.41934,17.62639 101.41934,101.88969 l -41.76713,-3.91567"
         style="fill:#1d2021;fill-opacity:1;fill-rule:nonzero;stroke:none;stroke-width:1.22122"
         id="path3094" />
      <path
         inkscape:connector-curvature="0"
         d="m 591.6381,278.6693 c 0,-54.44307 -17.08547,-83.2638 -49.83363,-83.2638 -10.6064,0 -16.15654,4.12733 -16.67393,17.79101 -1.70502,44.83616 -1.70502,100.99601 0,141.0346 0.51739,12.14681 4.45658,17.96739 16.67393,17.96739 32.95981,0 49.83363,-31.53699 49.83363,-93.5292 l 41.77889,3.91567 c 0,70.36444 -37.80442,103.94747 -100.81963,103.94747 H 482.9401 c 4.0215,-50.53916 5.27968,-151.61749 0,-205.83716 h 49.03404 c 56.67724,0 101.44285,17.62639 101.44285,101.88969 L 591.6381,278.6693"
         style="fill:#1d2021;fill-opacity:1;fill-rule:nonzero;stroke:none;stroke-width:1.22122"
         id="path3096" />
      <path
         inkscape:connector-curvature="0"
         d="m 323.78524,222.67407 c 0,62.56838 118.23436,60.40477 118.23436,115.49458 0.0188,33.10092 -17.8498,52.03252 -62.15681,52.03252 -31.38415,0 -50.36279,-6.46732 -61.369,-10.94741 V 337.3573 c 0,-3.49236 2.21065,-3.56291 3.93919,-0.37629 11.59415,21.76547 30.97258,39.55648 52.36178,39.55648 23.12948,0 33.90051,-13.15805 33.90051,-33.11268 0,-43.8014 -90.78941,-44.31878 -90.78941,-107.29872 0,-4.71525 1.15235,-12.15855 1.57568,-13.74599 0.85886,-3.3042 4.3037,-3.09255 4.3037,0.29351"
         style="fill:#1d2021;fill-opacity:1;fill-rule:nonzero;stroke:none;stroke-width:1.22122"
         id="path3098" />
      <path
         inkscape:connector-curvature="0"
         d="m 459.11685,311.3469 c 0,-60.16959 -93.64679,-61.38074 -93.64679,-99.47913 0,-16.20358 14.39273,-21.75371 31.56051,-21.75371 21.55382,0 38.50996,14.087 48.15215,29.84374 2.04601,2.46934 4.2449,2.16361 4.2449,-1.50513 v -32.60705 c -7.50209,-3.25717 -28.84424,-10.12428 -51.11534,-10.12428 -37.15769,0 -65.31993,11.15906 -65.31993,39.42712 0,55.68951 119.26913,54.70177 119.26913,112.36675 0,5.31496 -0.30572,7.7843 -0.64625,10.72399 -0.2935,2.93969 3.08079,4.05677 4.20963,0.63497 1.91668,-5.77355 3.29245,-14.34569 3.29245,-27.52727"
         style="fill:#1d2021;fill-opacity:1;fill-rule:nonzero;stroke:none;stroke-width:1.22122"
         id="path3100" />
    </g>
  </g>
</svg>
