<?xml version="1.0" encoding="UTF-8" standalone="no"?>
<svg
   height="200"
   width="500"
   version="1.1"
   id="svg315"
   sodipodi:docname="flac_logo_dark.svg"
   inkscape:version="1.2.1 (9c6d41e410, 2022-07-14, custom)"
   xmlns:inkscape="http://www.inkscape.org/namespaces/inkscape"
   xmlns:sodipodi="http://sodipodi.sourceforge.net/DTD/sodipodi-0.dtd"
   xmlns="http://www.w3.org/2000/svg"
   xmlns:svg="http://www.w3.org/2000/svg">
  <defs
     id="defs319" />
  <sodipodi:namedview
     id="namedview317"
     pagecolor="#ffffff"
     bordercolor="#666666"
     borderopacity="1.0"
     inkscape:showpageshadow="2"
     inkscape:pageopacity="0.0"
     inkscape:pagecheckerboard="0"
     inkscape:deskcolor="#d1d1d1"
     showgrid="false"
     inkscape:zoom="0.99010618"
     inkscape:cx="36.359737"
     inkscape:cy="77.26444"
     inkscape:window-width="735"
     inkscape:window-height="736"
     inkscape:window-x="0"
     inkscape:window-y="0"
     inkscape:window-maximized="1"
     inkscape:current-layer="svg315" />
  <metadata
     id="metadata244" />
  <g
     fill="#020202"
     transform="matrix(2.0017475,0,0,1.9501147,-14.263743,-4.7393062)"
     id="g298"
     style="fill:#83a598;fill-opacity:1">
    <path
       d="m 66.3015,50.3963 -10.3832,-0.02051 3.73125,-17.3758 6.65197,0.01256 v -1.61366 c 0,-4.81026 0.77954,-8.91404 2.28985,-12.332 1.54285,-3.49155 3.68584,-6.33582 6.46545,-8.52741 2.87766,-2.2689 6.28274,-3.94671 10.237,-4.98526 4.03782,-1.06051 8.43151,-1.57348 13.313,-1.57357 l 5.02213,19.4443 -6.08956,-0.13258 c -3.86672,-0.08419 -6.76452,0.8169 -8.63453,2.52234 -1.81791,1.65792 -2.69829,4.28957 -2.69829,7.39556 l 11.4612,-0.21025 v 17.3758 h -11.4612 v 49.5768 l -19.905,2.24919 v -51.8055"
       id="path288"
       style="fill:#83a598;fill-opacity:1" />
    <path
       d="m 129.113,6.53469 0.0625,93.4741 -20.1701,2.53203 V 8.79242 Z"
       id="path290"
       style="fill:#83a598;fill-opacity:1" />
    <path
       d="m 157.812,55.625 c -13.9022,-0.08596 -23.2812,9.72256 -23.2812,23.9062 0,14.1837 10.1045,23.9922 23.2812,23.9062 13.1767,-0.086 21.3438,-10.1136 21.3438,-25.0625 0,-14.9489 -7.44156,-22.664 -21.3438,-22.75 z m 5.53125,13.625 c 5.45822,0 9.75,3.5981 9.75,8.90625 0,5.30815 -4.01013,8.90625 -9.75,8.90625 -5.73985,0 -9.75,-3.62778 -9.75,-8.90625 0,-5.27847 4.29179,-8.90625 9.75,-8.90625 z"
       id="path292"
       style="fill:#83a598;fill-opacity:1" />
    <path
       d="m 173.75,57.7321 c 0,-3.13012 -1.05228,-5.62446 -3.15673,-7.48305 -2.00432,-1.85848 -5.19181,-2.78775 -9.77085,-2.7878 -3.45978,0 -6.97586,0.56188 -9.73656,1.31691 -2.76073,0.66075 -5.01021,1.41583 -6.74843,2.26524 l 3.01488,-18.1823 c 1.27692,-0.5233 3.51153,-1.1121 6.7039,-1.76629 3.19229,-0.65417 7.20519,-0.98127 12.1765,-0.98127 7.32337,0 14.4186,2.1585 19.132,6.40157 5.56899,5.01333 6.81601,8.55478 6.85453,18.4122 0.0589,15.077 -1.29993,45.7828 -1.29993,45.7828 l -17.4817,1.6768"
       id="path294"
       style="fill:#83a598;fill-opacity:1" />
    <path
       d="m 234,30 c -19.9943,0 -35.75,14.9182 -35.75,36.6875 0,21.7693 14.724,36.7188 35.75,36.7188 9.7245,0 18.086,-3.17475 24.2812,-8.75 l -10.75,-15.25 c -2.94202,3.1599 -7.11604,5 -12.0625,5 -9.80821,0 -17.25,-8.14891 -17.25,-17.7188 0,-10.4979 7.92303,-17.6875 17.25,-17.6875 4.59876,0 8.69913,1.727 11.6875,4.75 L 257.7187,38.625 C 251.44104,33.13526 243.1773,30 233.9999,30 Z"
       id="path296"
       style="fill:#83a598;fill-opacity:1" />
  </g>
  <g
     id="g725"
     transform="matrix(1,0,0,0.97420616,0,-4.4386047)"
     style="fill:#83a598;fill-opacity:1">
    <path
       d="M 2.75,57.413265 V 76.7993 H 16.460611 V 57.413265 Z m 0,26.610436 V 103.40974 H 16.460611 V 84.023701 Z m 0,26.610439 v 19.38603 h 13.710611 v -19.38603 z"
       fill="#ffff01"
       id="path300"
       style="fill:#83a598;stroke-width:1.66315;fill-opacity:1" />
    <path
       d="m 2.75,137.24457 v 19.38604 h 13.710611 v -19.38604 z m 0,26.61044 v 19.38604 h 13.710611 v -19.38604 z m 0,26.61044 v 19.38603 h 13.710611 v -19.38603 z"
       fill="#2ea02a"
       id="path302"
       style="fill:#83a598;stroke-width:1.66315;fill-opacity:1" />
    <path
       d="M 2.75,4.5561248 V 23.942161 H 16.460611 V 4.5561248 Z m 0,26.2465392 V 50.188698 H 16.460611 V 30.802664 Z"
       fill="#ff0000"
       id="path304"
       style="fill:#83a598;stroke-width:1.66315;fill-opacity:1" />
    <path
       d="M 24.37098,57.413265 V 76.7993 H 38.08159 V 57.413265 Z m 0,26.610436 V 103.40974 H 38.08159 V 84.023701 Z m 0,26.610439 v 19.38603 h 13.71061 v -19.38603 z"
       fill="#ffff01"
       id="path548"
       style="fill:#83a598;stroke-width:1.66315;fill-opacity:1" />
    <path
       d="m 24.37098,137.24457 v 19.38604 h 13.71061 v -19.38604 z m 0,26.61044 v 19.38604 h 13.71061 v -19.38604 z m 0,26.61044 v 19.38603 h 13.71061 v -19.38603 z"
       fill="#2ea02a"
       id="path550"
       style="fill:#83a598;stroke-width:1.66315;fill-opacity:1" />
    <path
       d="M 45.991959,57.413265 V 76.7993 H 59.70257 V 57.413265 Z m 0,26.610436 V 103.40974 H 59.70257 V 84.023701 Z m 0,26.610439 v 19.38603 H 59.70257 v -19.38603 z"
       fill="#ffff01"
       id="path540"
       style="fill:#83a598;stroke-width:1.66315;fill-opacity:1" />
    <path
       d="m 45.991959,137.24457 v 19.38604 H 59.70257 v -19.38604 z m 0,26.61044 v 19.38604 H 59.70257 v -19.38604 z m 0,26.61044 v 19.38603 H 59.70257 v -19.38603 z"
       fill="#2ea02a"
       id="path542"
       style="fill:#83a598;stroke-width:1.66315;fill-opacity:1" />
    <path
       d="M 45.991959,30.802664 V 50.188698 H 59.70257 V 30.802664 Z"
       fill="#ff0000"
       id="path544"
       sodipodi:nodetypes="ccccc"
       style="fill:#83a598;stroke-width:1.66315;fill-opacity:1" />
    <path
       d="m 67.612937,110.63414 v 19.38603 H 81.32355 v -19.38603 z"
       fill="#ffff01"
       id="path532"
       sodipodi:nodetypes="ccccc"
       style="fill:#83a598;stroke-width:1.66315;fill-opacity:1" />
    <path
       d="m 67.612937,137.24457 v 19.38604 H 81.32355 v -19.38604 z m 0,26.61044 v 19.38604 H 81.32355 v -19.38604 z m 0,26.61044 v 19.38603 H 81.32355 v -19.38603 z"
       fill="#2ea02a"
       id="path534"
       style="fill:#83a598;stroke-width:1.66315;fill-opacity:1" />
  </g>
  <g
     id="g523"
     transform="translate(-58.183787,-0.30560078)" />
</svg>
