<?xml version="1.0" encoding="UTF-8" standalone="no"?>
<svg
   viewBox="0 0 496 512"
   version="1.1"
   id="svg205"
   sodipodi:docname="logo.svg"
   inkscape:version="1.2.1 (9c6d41e410, 2022-07-14, custom)"
   xmlns:inkscape="http://www.inkscape.org/namespaces/inkscape"
   xmlns:sodipodi="http://sodipodi.sourceforge.net/DTD/sodipodi-0.dtd"
   xmlns="http://www.w3.org/2000/svg"
   xmlns:svg="http://www.w3.org/2000/svg">
  <defs
     id="defs209">
    <filter
       inkscape:collect="always"
       style="color-interpolation-filters:sRGB"
       id="filter903"
       x="-0.05423681"
       y="-0.057102274"
       width="1.1084736"
       height="1.1142045">
      <feGaussianBlur
         inkscape:collect="always"
         stdDeviation="11.206966"
         id="feGaussianBlur905" />
    </filter>
  </defs>
  <sodipodi:namedview
     id="namedview207"
     pagecolor="#ffffff"
     bordercolor="#666666"
     borderopacity="1.0"
     inkscape:showpageshadow="2"
     inkscape:pageopacity="0.0"
     inkscape:pagecheckerboard="0"
     inkscape:deskcolor="#d1d1d1"
     showgrid="false"
     inkscape:zoom="0.95898438"
     inkscape:cx="248.70061"
     inkscape:cy="257.04277"
     inkscape:window-width="1354"
     inkscape:window-height="736"
     inkscape:window-x="0"
     inkscape:window-y="0"
     inkscape:window-maximized="1"
     inkscape:current-layer="svg205" />
  <path
     d="M298.3 373.6c-14.2 13.6-31.3 24.1-50.4 30.5-19-6.4-36.2-16.9-50.3-30.5h100.7zm44-199.6c20-16.9 43.6-29.2 69.6-36.2V299c0 219.4-328 217.6-328 .3V137.7c25.9 6.9 49.6 19.6 69.5 36.4 56.8-40 132.5-39.9 188.9-.1zm-208.8-58.5c64.4-60 164.3-60.1 228.9-.2-7.1 3.5-13.9 7.3-20.6 11.5-58.7-30.5-129.2-30.4-187.9.1-6.3-4-13.9-8.2-20.4-11.4zM43.8 93.2v69.3c-58.4 36.5-58.4 121.1.1 158.3 26.4 245.1 381.7 240.3 407.6 1.5l.3-1.7c58.7-36.3 58.9-121.7.2-158.2V93.2c-17.3.5-34 3-50.1 7.4-82-91.5-225.5-91.5-307.5.1-16.3-4.4-33.1-7-50.6-7.5zM259.2 352s36-.3 61.3-1.5c10.2-.5 21.1-4 25.5-6.5 26.3-15.1 25.4-39.2 26.2-47.4-79.5-.6-99.9-3.9-113 55.4zm-135.5-55.3c.8 8.2-.1 32.3 26.2 47.4 4.4 2.5 15.2 6 25.5 6.5 25.3 1.1 61.3 1.5 61.3 1.5-13.2-59.4-33.7-56.1-113-55.4zm169.1 123.4c-3.2-5.3-6.9-7.3-6.9-7.3-24.8 7.3-52.2 6.9-75.9 0 0 0-2.9 1.5-6.4 6.6-2.8 4.1-3.7 9.6-3.7 9.6 29.1 17.6 67.1 17.6 96.2 0-.1-.1-.3-4-3.3-8.9z"
     id="path347"
     style="fill:#000000;filter:url(#filter903);opacity:0.63175478" />
  <!--! Font Awesome Pro 6.0.0 by @fontawesome - https://fontawesome.com License - https://fontawesome.com/license (Commercial License) Copyright 2022 Fonticons, Inc. -->
  <path
     d="M298.3 373.6c-14.2 13.6-31.3 24.1-50.4 30.5-19-6.4-36.2-16.9-50.3-30.5h100.7zm44-199.6c20-16.9 43.6-29.2 69.6-36.2V299c0 219.4-328 217.6-328 .3V137.7c25.9 6.9 49.6 19.6 69.5 36.4 56.8-40 132.5-39.9 188.9-.1zm-208.8-58.5c64.4-60 164.3-60.1 228.9-.2-7.1 3.5-13.9 7.3-20.6 11.5-58.7-30.5-129.2-30.4-187.9.1-6.3-4-13.9-8.2-20.4-11.4zM43.8 93.2v69.3c-58.4 36.5-58.4 121.1.1 158.3 26.4 245.1 381.7 240.3 407.6 1.5l.3-1.7c58.7-36.3 58.9-121.7.2-158.2V93.2c-17.3.5-34 3-50.1 7.4-82-91.5-225.5-91.5-307.5.1-16.3-4.4-33.1-7-50.6-7.5zM259.2 352s36-.3 61.3-1.5c10.2-.5 21.1-4 25.5-6.5 26.3-15.1 25.4-39.2 26.2-47.4-79.5-.6-99.9-3.9-113 55.4zm-135.5-55.3c.8 8.2-.1 32.3 26.2 47.4 4.4 2.5 15.2 6 25.5 6.5 25.3 1.1 61.3 1.5 61.3 1.5-13.2-59.4-33.7-56.1-113-55.4zm169.1 123.4c-3.2-5.3-6.9-7.3-6.9-7.3-24.8 7.3-52.2 6.9-75.9 0 0 0-2.9 1.5-6.4 6.6-2.8 4.1-3.7 9.6-3.7 9.6 29.1 17.6 67.1 17.6 96.2 0-.1-.1-.3-4-3.3-8.9z"
     id="path203"
     style="fill:#a89984" />
</svg>
