<?xml version="1.0" encoding="UTF-8" standalone="no"?>
<svg
   viewBox="0 0 496 512"
   version="1.1"
   id="svg205"
   sodipodi:docname="logo.svg"
   inkscape:version="1.2.1 (9c6d41e410, 2022-07-14, custom)"
   xml:space="preserve"
   xmlns:inkscape="http://www.inkscape.org/namespaces/inkscape"
   xmlns:sodipodi="http://sodipodi.sourceforge.net/DTD/sodipodi-0.dtd"
   xmlns="http://www.w3.org/2000/svg"
   xmlns:svg="http://www.w3.org/2000/svg"><defs
     id="defs209"><filter
       inkscape:collect="always"
       style="color-interpolation-filters:sRGB"
       id="filter903"
       x="-0.05423681"
       y="-0.057102274"
       width="1.1084736"
       height="1.1142045"><feGaussianBlur
         inkscape:collect="always"
         stdDeviation="11.206966"
         id="feGaussianBlur905" /></filter></defs><sodipodi:namedview
     id="namedview207"
     pagecolor="#ffffff"
     bordercolor="#666666"
     borderopacity="1.0"
     inkscape:showpageshadow="2"
     inkscape:pageopacity="0.0"
     inkscape:pagecheckerboard="0"
     inkscape:deskcolor="#d1d1d1"
     showgrid="false"
     inkscape:zoom="0.95898438"
     inkscape:cx="248.70061"
     inkscape:cy="257.04277"
     inkscape:window-width="1354"
     inkscape:window-height="736"
     inkscape:window-x="0"
     inkscape:window-y="0"
     inkscape:window-maximized="1"
     inkscape:current-layer="svg205" /><path
     d="m 298.3,373.6 c -14.2,13.6 -31.3,24.1 -50.4,30.5 -19,-6.4 -36.2,-16.9 -50.3,-30.5 z m 44,-199.6 c 20,-16.9 43.6,-29.2 69.6,-36.2 V 299 c 0,219.4 -328,217.6 -328,0.3 V 137.7 c 25.9,6.9 49.6,19.6 69.5,36.4 56.8,-40 132.5,-39.9 188.9,-0.1 z M 133.5,115.5 c 64.4,-60 164.3,-60.1 228.9,-0.2 -7.1,3.5 -13.9,7.3 -20.6,11.5 -58.7,-30.5 -129.2,-30.4 -187.9,0.1 -6.3,-4 -13.9,-8.2 -20.4,-11.4 z M 43.8,93.2 v 69.3 c -58.4,36.5 -58.4,121.1 0.1,158.3 26.4,245.1 381.7,240.3 407.6,1.5 l 0.3,-1.7 C 510.5,284.3 510.7,198.9 452,162.4 V 93.2 c -17.3,0.5 -34,3 -50.1,7.4 C 319.9,9.1 176.4,9.1 94.4,100.7 78.1,96.3 61.3,93.7 43.8,93.2 Z M 259.2,352 c 0,0 36,-0.3 61.3,-1.5 10.2,-0.5 21.1,-4 25.5,-6.5 26.3,-15.1 25.4,-39.2 26.2,-47.4 -79.5,-0.6 -99.9,-3.9 -113,55.4 z M 123.7,296.7 c 0.8,8.2 -0.1,32.3 26.2,47.4 4.4,2.5 15.2,6 25.5,6.5 25.3,1.1 61.3,1.5 61.3,1.5 C 223.5,292.7 203,296 123.7,296.7 Z m 169.1,123.4 c -3.2,-5.3 -6.9,-7.3 -6.9,-7.3 -24.8,7.3 -52.2,6.9 -75.9,0 0,0 -2.9,1.5 -6.4,6.6 -2.8,4.1 -3.7,9.6 -3.7,9.6 29.1,17.6 67.1,17.6 96.2,0 -0.1,-0.1 -0.3,-4 -3.3,-8.9 z"
     id="path347"
     style="opacity:0.631755;fill:#000000;filter:url(#filter903)"
     transform="matrix(0.93015247,0,0,0.93015247,17.32001,18.684288)" /><!--! Font Awesome Pro 6.0.0 by @fontawesome - https://fontawesome.com License - https://fontawesome.com/license (Commercial License) Copyright 2022 Fonticons, Inc. --><path
     d="m 292.76811,361.93868 c -12.63929,12.10522 -27.85983,21.45118 -44.86055,27.14775 -16.91171,-5.69657 -32.22127,-15.04253 -44.77154,-27.14775 z m 39.16396,-177.662 c 17.80181,-15.04252 38.80794,-25.99063 61.95029,-32.22126 v 143.48253 c 0,195.28579 -291.94959,193.68364 -291.94959,0.26703 V 151.96641 c 23.05334,6.14163 44.14848,17.44578 61.86127,32.39929 50.55712,-35.60361 117.93695,-35.5146 168.13803,-0.089 z M 146.08125,132.20641 c 57.3218,-53.40541 146.24181,-53.494419 203.74164,-0.17802 -6.31964,3.11532 -12.37226,6.49766 -18.33587,10.23604 -52.24828,-27.14775 -114.99964,-27.05874 -167.24792,0.0889 -5.60759,-3.56035 -12.37227,-7.29873 -18.15785,-10.14701 z M 66.24016,112.3574 v 61.68324 c -51.981266,32.4883 -51.981266,107.78993 0.08901,140.90127 23.49838,218.16111 339.74741,213.88868 362.80075,1.33514 l 0.26703,-1.51315 c 52.24829,-32.31027 52.42631,-108.32397 0.17802,-140.81226 V 112.3574 c -15.39856,0.44505 -30.26307,2.67027 -44.59352,6.58666 -72.98739,-81.443244 -200.71533,-81.443244 -273.70273,0.089 -14.508471,-3.9164 -29.461985,-6.23063 -45.038563,-6.67568 z m 191.72542,230.35533 c 0,0 32.04324,-0.26701 54.56253,-1.33513 9.07892,-0.44504 18.7809,-3.56036 22.69731,-5.78558 23.40936,-13.44037 22.60827,-34.89154 23.32035,-42.19028 -70.76216,-0.53406 -88.92001,-3.47136 -100.58019,49.31099 z M 137.35836,293.49075 c 0.71207,7.29874 -0.0889,28.7499 23.32037,42.19027 3.91639,2.22522 13.52936,5.34055 22.69729,5.78558 22.51928,0.97912 54.56254,1.33514 54.56254,1.33514 -11.7492,-52.87136 -29.99605,-49.93406 -100.5802,-49.31099 z m 150.51425,109.83712 c -2.84829,-4.71747 -6.14162,-6.49765 -6.14162,-6.49765 -22.07423,6.49765 -46.46271,6.14163 -67.55784,0 0,0 -2.58126,1.33514 -5.69658,5.87459 -2.49225,3.64937 -3.29334,8.54487 -3.29334,8.54487 25.90163,15.66558 59.72505,15.66558 85.62667,0 -0.089,-0.089 -0.26701,-3.56037 -2.93729,-7.92181 z"
     id="path203"
     style="fill:#98971a;fill-opacity:1;stroke-width:0.890089" /></svg>
