<?xml version="1.0" encoding="UTF-8" standalone="no"?>
<!-- Created with Inkscape (http://www.inkscape.org/) -->

<svg
   version="1.1"
   id="svg795"
   width="300"
   height="100"
   viewBox="0 0 300 100"
   sodipodi:docname="mqa_logo.svg"
   inkscape:version="1.2.2 (b0a8486541, 2022-12-01)"
   xmlns:inkscape="http://www.inkscape.org/namespaces/inkscape"
   xmlns:sodipodi="http://sodipodi.sourceforge.net/DTD/sodipodi-0.dtd"
   xmlns="http://www.w3.org/2000/svg"
   xmlns:svg="http://www.w3.org/2000/svg">
  <defs
     id="defs799" />
  <sodipodi:namedview
     id="namedview797"
     pagecolor="#ffffff"
     bordercolor="#666666"
     borderopacity="1.0"
     inkscape:showpageshadow="2"
     inkscape:pageopacity="0.0"
     inkscape:pagecheckerboard="0"
     inkscape:deskcolor="#d1d1d1"
     showgrid="false"
     inkscape:zoom="1.5250001"
     inkscape:cx="150.16393"
     inkscape:cy="159.99999"
     inkscape:window-width="1354"
     inkscape:window-height="736"
     inkscape:window-x="0"
     inkscape:window-y="0"
     inkscape:window-maximized="1"
     inkscape:current-layer="g801" />
  <g
     inkscape:groupmode="layer"
     inkscape:label="Image"
     id="g801">
    <path
       style="fill:#d6d6d6;fill-opacity:1;stroke-width:0.68512"
       d="m 44.664349,86.19094 c -3.24241,-6.87561 -8.99463,-19.11315 -12.78271,-27.19453 -5.8611,-12.50391 -8.29958,-16.82722 -8.29958,-14.71486 0,2.29587 -9.20163,52.16303 -9.74576,52.81598 C 12.749909,98.4012 0.51601818,98.29632 0.00843818,96.97898 -0.19985182,96.43842 3.4742682,75.28593 8.1731282,49.97343 18.331019,-4.7464598 17.322369,0.19026023 18.344659,0.19026023 c 0.98864,0 1.04504,0.11192 18.08779,35.89513977 7.34316,15.41783 13.65536,28.34007 14.02712,28.71612 0.44891,0.45409 0.97064,0.2865 1.55344,-0.49902 0.48263,-0.6505 7.45909,-14.95728 15.50325,-31.79284 8.04417,-16.83557 15.04075,-31.0584198 15.54796,-31.60637977 0.57821,-0.62466 1.14871,-0.75217 1.52944,-0.34185 C 85.490239,1.5276702 102.79079,95.62131 102.3041,96.88442 c -0.63959,1.65992 -12.190571,1.55894 -13.627251,-0.11913 -0.6446,-0.7529 -2.61305,-10.44871 -5.30942,-26.15218 -2.35676,-13.72561 -4.42528,-25.3917 -4.59671,-25.92463 -0.23015,-0.71551 -0.51294,-0.76855 -1.08099,-0.20283 -0.42312,0.42139 -6.37624,12.68256 -13.22917,27.24709 -6.85293,14.5645 -12.7841,26.58856 -13.1804,26.72011 -0.3963,0.13156 -3.37341,-5.38631 -6.61581,-12.26191 z m 99.402801,10.75905 c 0,9.81004 -17.64977,-6.56223 -24.71489,-13.7063 -5.66678,-5.73011 -9.29339,-11.59121 -11.83428,-19.12588 -1.65996,-4.92239 -1.8461,-6.46182 -1.86005,-15.38363 -0.0142,-9.12305 0.13787,-10.35025 1.90736,-15.38364 5.49504,-15.63084 18.9449,-28.0762998 34.78555,-32.1878298 5.92574,-1.53806997 17.33489,-1.55238997 23.68509,-0.0298 2.64313,0.63378 7.43164,2.43854 10.64114,4.01059 8.08392,3.95958 17.01643,12.7451898 21.18023,20.8319098 9.13299,17.73765 7.0265,38.85314 -5.39087,54.03876 l -3.49425,4.27325 h 9.64251 c 11.86288,0 12.38862,0.30014 12.38862,7.07305 0,7.07813 2.33556,6.61002 -32.66399,6.54692 -22.27337,-0.04 -34.27217,-4.06028 -34.27217,-0.95745 z m 19.09939,-13.68485 c 15.6499,-4.0596 26.59639,-17.89918 26.7141,-33.77441 0.0785,-10.58208 -3.55626,-19.18072 -11.09156,-26.23919 -14.22575,-13.3255498 -34.62238,-13.3255498 -48.84812,0 -12.74042,11.93423 -14.87863,30.93005 -5.12827,45.55954 8.06419,12.09952 24.11374,18.14797 38.35385,14.45406 z m 57.21927,14.24085 c -0.25172,-0.2507 -0.4562,-0.94296 -0.45439,-1.53837 0.006,-1.94494 38.33075,-94.7332998 39.41186,-95.42013977 0.68522,-0.43532 1.27121,-0.43532 1.68067,0 1.32615,1.40985997 39.34239,95.44638977 38.97338,96.40409977 -0.30153,0.78249 -1.71658,1.01022 -6.27744,1.01022 -5.33636,0 -6.04616,-0.1573 -7.57333,-1.67822 -0.92682,-0.92302 -1.68508,-2.13136 -1.68508,-2.68524 0,-0.55386 -0.81401,-1.64471 -1.80893,-2.42408 -1.73815,-1.36165 -2.60946,-1.41707 -22.27975,-1.41707 -13.59184,0 -21.03538,0.25617 -22.15079,0.7623 -0.92395,0.41926 -2.22962,1.97632 -2.90147,3.46013 -0.67184,1.48381 -1.76373,2.98682 -2.42639,3.34 -1.36636,0.72827 -11.808,0.88385 -12.50834,0.18637 z m 55.43793,-20.47072 c 0.59727,-0.22825 1.08594,-0.97995 1.08594,-1.67043 0,-1.33733 -15.56206,-41.64049 -16.43197,-42.55607 -0.28311,-0.29797 -0.82294,-0.14413 -1.19963,0.34187 -0.37669,0.48599 -4.32718,10.24256 -8.77886,21.68128 -7.62521,19.59318 -8.02157,20.85038 -6.84386,21.708 0.95004,0.69187 4.83012,0.91036 16.16626,0.91036 8.2039,0 15.40486,-0.18674 16.00212,-0.41501 z"
       id="path922"
       sodipodi:nodetypes="ssssssssssssssssssssssssssssssscsssssssssssscssssssssssssssssssss" />
  </g>
</svg>
