<?xml version="1.0" encoding="UTF-8" standalone="no"?>
<!-- Created with Inkscape (http://www.inkscape.org/) -->

<svg
   version="1.1"
   id="svg795"
   width="300"
   height="320"
   viewBox="0 0 300 320"
   sodipodi:docname="mqa_logo.svg"
   inkscape:version="1.2.1 (9c6d41e410, 2022-07-14, custom)"
   xmlns:inkscape="http://www.inkscape.org/namespaces/inkscape"
   xmlns:sodipodi="http://sodipodi.sourceforge.net/DTD/sodipodi-0.dtd"
   xmlns="http://www.w3.org/2000/svg"
   xmlns:svg="http://www.w3.org/2000/svg">
  <defs
     id="defs799" />
  <sodipodi:namedview
     id="namedview797"
     pagecolor="#ffffff"
     bordercolor="#666666"
     borderopacity="1.0"
     inkscape:showpageshadow="2"
     inkscape:pageopacity="0.0"
     inkscape:pagecheckerboard="0"
     inkscape:deskcolor="#d1d1d1"
     showgrid="false"
     inkscape:zoom="0.37460317"
     inkscape:cx="599.30085"
     inkscape:cy="452.47882"
     inkscape:window-width="1354"
     inkscape:window-height="736"
     inkscape:window-x="0"
     inkscape:window-y="0"
     inkscape:window-maximized="1"
     inkscape:current-layer="g801" />
  <g
     inkscape:groupmode="layer"
     inkscape:label="Image"
     id="g801">
    <path
       style="fill:#d6d6d6;stroke-width:0.685883;fill-opacity:1"
       d="M 138.12384,178.38641 C 107.37906,173.49283 81.534069,153.65247 69.256989,125.51954 60.839509,106.2309 59.567749,83.368994 65.783509,63.078174 81.838789,10.667079 141.46221,-15.000018 191.11122,9.126264 c 24.91435,12.1068 42.64479,34.93016 48.69875,62.68709 1.79149,8.2138 1.79149,27.41873 0,35.632536 -8.19173,37.55841 -37.54915,65.23783 -75.25492,70.95356 -7.8346,1.18762 -18.92214,1.18216 -26.43121,-0.013 z M 154.617,129.9524 c 1.35694,-1.18918 3.03045,-3.2706 3.7189,-4.62538 1.60404,-3.15649 5.05184,-13.95494 6.63905,-20.79341 l 1.23261,-5.310616 h 14.82141 14.82141 l 1.94449,6.226146 c 3.39339,10.86546 8.2578,14.99562 14.01528,11.89977 3.80472,-2.04582 7.48673,-10.96311 9.96005,-24.121776 l 0.41859,-2.22703 h -9.92437 c -9.73531,0 -9.93072,-0.0294 -10.25825,-1.5418 -0.18365,-0.84798 -1.29491,-6.47552 -2.46948,-12.50564 -5.25396,-26.97324 -9.42598,-37.9754 -15.33474,-40.43962 -8.39332,-3.50039 -13.32373,6.13651 -21.13618,41.31243 l -2.93327,13.20712 -10.92273,-0.18755 -10.92273,-0.18756 -3.01289,-10.62125 c -4.78123,-16.85512 -9.23185,-24.79021 -14.45261,-25.76779 -4.47425,-0.83781 -8.72111,2.43365 -12.29329,9.46981 -2.37174,4.67164 -3.35698,7.4219 -6.45218,18.01109 l -2.603851,8.90814 -10.02312,0.18962 c -8.95582,0.16944 -10.02302,0.31538 -10.02223,1.37048 4.9e-4,0.64948 0.75,4.26445 1.66557,8.033266 2.92516,12.04097 5.86829,17.02271 10.57776,17.90455 5.08719,0.95258 8.984881,-3.4712 12.137221,-13.77547 l 1.47281,-4.814316 h 13.57136 13.57135 l 2.32554,8.075186 c 1.27905,4.44136 3.2559,10.30585 4.39301,13.03219 4.46151,10.69701 10.04064,14.04236 15.47551,9.27941 z m -6.06965,-7.29265 c -0.99756,-1.10022 -6.52964,-16.74841 -7.61937,-21.55234 l -0.42745,-1.884416 h 8.93789 c 4.91585,0 8.93502,0.0771 8.93151,0.17132 -0.0539,1.444126 -5.0998,19.153286 -6.10125,21.412976 -1.50687,3.40016 -2.06579,3.67838 -3.72133,1.85246 z M 91.184049,108.30243 c -0.65087,-1.60129 -2.80317,-8.386246 -2.82581,-8.908116 -0.004,-0.0942 2.03413,-0.17132 4.5294,-0.17132 h 4.53684 l -0.44663,1.884416 c -1.63859,6.91346 -2.53491,9.07944 -3.75726,9.07944 -0.74272,0 -1.58879,-0.78288 -2.03654,-1.88442 z m 115.365741,0.72659 c -0.36434,-0.68229 -1.02144,-2.62814 -1.46023,-4.3241 -0.43879,-1.69598 -0.95471,-3.62321 -1.14647,-4.28277 -0.30724,-1.056686 0.19349,-1.199156 4.21456,-1.199156 h 4.56322 l -0.4822,2.227026 c -1.52021,7.02117 -4.13008,10.49813 -5.68888,7.579 z M 107.5735,90.547914 c 0,-1.41461 5.06271,-17.16042 6.99202,-21.74624 3.60333,-8.56484 5.72676,-8.75497 8.95724,-0.80198 1.57744,3.88345 6.70605,21.13183 6.70605,22.5536 0,0.24575 -5.09745,0.44681 -11.32765,0.44681 -6.23022,0 -11.32766,-0.20348 -11.32766,-0.45219 z m 60.6845,-0.74698 c 0.19957,-0.65954 1.459,-6.16787 2.79873,-12.24074 3.1914,-14.46625 6.9643,-28.12373 8.48913,-30.72973 3.45439,-5.90367 5.85624,-0.009 11.80919,28.98101 1.4963,7.28687 2.72056,13.68531 2.72056,14.21874 0,0.80245 -2.25994,0.96989 -13.09024,0.96989 -12.14743,0 -13.0641,-0.0863 -12.72737,-1.19917 z M 44.664349,306.16016 c -3.24241,-6.89094 -8.99463,-19.15575 -12.78271,-27.25515 -5.8611,-12.53177 -8.29958,-16.86472 -8.29958,-14.74765 0,2.30098 -9.20163,52.27929 -9.74576,52.9337 -1.08639,1.30657 -13.32027997,1.20146 -13.82785997,-0.11882 -0.20829,-0.54176 3.46582997,-21.7414 8.16468997,-47.11032 10.15789,-54.84185 9.14924,-49.89413 10.17153,-49.89413 0.98864,0 1.04504,0.11217 18.08779,35.97515 7.34316,15.45219 13.65536,28.40324 14.02712,28.78012 0.44891,0.45511 0.97064,0.28714 1.55344,-0.50013 0.48263,-0.65195 7.45909,-14.99062 15.50325,-31.8637 8.04417,-16.87309 15.04075,-31.12765 15.54796,-31.67683 0.57821,-0.62605 1.14871,-0.75384 1.52944,-0.34261 0.89658,0.96839 18.197131,95.27176 17.710441,96.53768 -0.63959,1.66362 -12.190571,1.56242 -13.627251,-0.11939 -0.6446,-0.75458 -2.61305,-10.472 -5.30942,-26.21047 -2.35676,-13.75621 -4.42528,-25.4483 -4.59671,-25.98242 -0.23015,-0.7171 -0.51294,-0.77026 -1.08099,-0.20328 -0.42312,0.42233 -6.37624,12.71083 -13.22917,27.30782 -6.85293,14.59696 -12.7841,26.64782 -13.1804,26.77967 -0.3963,0.13185 -3.37341,-5.39832 -6.61581,-12.28924 z m 99.402801,10.78303 c 0,9.8319 -17.64977,-6.57686 -24.71489,-13.73685 -5.66678,-5.74288 -9.29339,-11.61705 -11.83428,-19.16851 -1.65996,-4.93336 -1.8461,-6.47622 -1.86005,-15.41792 -0.0142,-9.14338 0.13787,-10.37332 1.90736,-15.41793 5.49504,-15.66568 18.9449,-28.13887 34.78555,-32.25957 5.92574,-1.5415 17.33489,-1.55585 23.68509,-0.0299 2.64313,0.63519 7.43164,2.44397 10.64114,4.01952 8.08392,3.96841 17.01643,12.7736 21.18023,20.87835 9.13299,17.77718 7.0265,38.93973 -5.39087,54.1592 l -3.49425,4.28277 h 9.64251 c 11.86288,0 12.38862,0.30081 12.38862,7.08882 0,7.09391 2.33556,6.62475 -32.66399,6.56151 -22.27337,-0.0401 -34.27217,-4.06933 -34.27217,-0.95958 z m 19.09939,-13.71535 c 15.6499,-4.06865 26.59639,-17.93908 26.7141,-33.84969 0.0785,-10.60567 -3.55626,-19.22347 -11.09156,-26.29768 -14.22575,-13.35525 -34.62238,-13.35525 -48.84812,0 -12.74042,11.96083 -14.87863,30.99899 -5.12827,45.66109 8.06419,12.12649 24.11374,18.18842 38.35385,14.48628 z m 57.21927,14.27259 c -0.25172,-0.25126 -0.4562,-0.94506 -0.45439,-1.5418 0.006,-1.94928 38.33075,-94.94445 39.41186,-95.63282 0.68522,-0.43629 1.27121,-0.43629 1.68067,0 1.32615,1.413 39.34239,95.65913 38.97338,96.61897 -0.30153,0.78424 -1.71658,1.01247 -6.27744,1.01247 -5.33636,0 -6.04616,-0.15765 -7.57333,-1.68196 -0.92682,-0.92507 -1.68508,-2.13611 -1.68508,-2.69122 0,-0.5551 -0.81401,-1.64838 -1.80893,-2.42949 -1.73815,-1.36468 -2.60946,-1.42022 -22.27975,-1.42022 -13.59184,0 -21.03538,0.25674 -22.15079,0.764 -0.92395,0.42019 -2.22962,1.98072 -2.90147,3.46784 -0.67184,1.48711 -1.76373,2.99347 -2.42639,3.34744 -1.36636,0.72989 -11.808,0.88582 -12.50834,0.18679 z m 55.43793,-20.51635 c 0.59727,-0.22876 1.08594,-0.98213 1.08594,-1.67415 0,-1.34031 -15.56206,-41.7333 -16.43197,-42.65092 -0.28311,-0.29864 -0.82294,-0.14446 -1.19963,0.34263 -0.37669,0.48707 -4.32718,10.26539 -8.77886,21.7296 -7.62521,19.63685 -8.02157,20.89686 -6.84386,21.75639 0.95004,0.69341 4.83012,0.91239 16.16626,0.91239 8.2039,0 15.40486,-0.18716 16.00212,-0.41594 z"
       id="path922"
       sodipodi:nodetypes="sssssssssssscccssscssssscccsssscssssscccssssscssssssscssssssscsssssssssssssssssssssssssssssssssssssssssssssscsssssssssssscssssssssssssssssssss" />
  </g>
</svg>
