<?xml version="1.0" encoding="UTF-8" standalone="no"?>
<!-- Created with Inkscape (http://www.inkscape.org/) -->

<svg
   version="1.1"
   id="svg795"
   width="450"
   height="120"
   viewBox="0 0 450 120"
   sodipodi:docname="mqa_logo_dark.svg"
   inkscape:version="1.2.1 (9c6d41e410, 2022-07-14, custom)"
   xmlns:inkscape="http://www.inkscape.org/namespaces/inkscape"
   xmlns:sodipodi="http://sodipodi.sourceforge.net/DTD/sodipodi-0.dtd"
   xmlns="http://www.w3.org/2000/svg"
   xmlns:svg="http://www.w3.org/2000/svg">
  <defs
     id="defs799" />
  <sodipodi:namedview
     id="namedview797"
     pagecolor="#ffffff"
     bordercolor="#666666"
     borderopacity="1.0"
     inkscape:showpageshadow="2"
     inkscape:pageopacity="0.0"
     inkscape:pagecheckerboard="0"
     inkscape:deskcolor="#d1d1d1"
     showgrid="false"
     inkscape:zoom="0.58393985"
     inkscape:cx="156.69422"
     inkscape:cy="148.13169"
     inkscape:window-width="1354"
     inkscape:window-height="736"
     inkscape:window-x="0"
     inkscape:window-y="0"
     inkscape:window-maximized="1"
     inkscape:current-layer="g801"
     showguides="true">
    <sodipodi:guide
       position="164.91026,-197.98427"
       orientation="0,-1"
       id="guide11698"
       inkscape:locked="false" />
  </sodipodi:namedview>
  <g
     inkscape:groupmode="layer"
     inkscape:label="Image"
     id="g801">
    <g
       id="g11702"
       transform="translate(-3.8040099,-97.690261)"
       style="fill:#1d2021">
      <path
         id="path10234"
         style="fill:#1d2021;fill-opacity:1;stroke-width:0.711119"
         d="m 190.63248,196.32656 c -3.34191,-7.18681 -9.27066,-19.97821 -13.17499,-28.42536 -6.04097,-13.06982 -8.55428,-17.58881 -8.55428,-15.38084 0,2.39977 -9.48402,54.52391 -10.04485,55.20642 -1.11973,1.36267 -13.72906,1.25304 -14.25221,-0.12393 -0.21469,-0.56501 3.57219,-22.67487 8.41525,-49.133 10.46962,-57.1965 9.43001,-52.03634 10.48368,-52.03634 1.01898,0 1.07711,0.11698 18.64288,37.51974 7.56851,16.11564 14.07442,29.62274 14.45759,30.0158 0.46268,0.47465 1.00042,0.29946 1.60111,-0.52161 0.49744,-0.67993 7.688,-15.63424 15.97902,-33.23177 8.29104,-17.59754 15.50233,-32.46412 16.02511,-33.03687 0.59595,-0.65293 1.18396,-0.78621 1.57637,-0.35733 0.9241,1.00997 18.75558,99.36228 18.25395,100.68254 -0.65922,1.73505 -12.56468,1.6295 -14.04545,-0.12451 -0.66438,-0.78698 -2.69324,-10.92162 -5.47236,-27.33582 -2.42908,-14.34684 -4.56108,-26.54093 -4.73777,-27.09798 -0.23722,-0.74789 -0.52869,-0.80333 -1.11417,-0.21201 -0.4361,0.44047 -6.57192,13.25658 -13.63515,28.48029 -7.06324,15.22368 -13.17643,27.79195 -13.58489,27.92945 -0.40846,0.13751 -3.47694,-5.63009 -6.81884,-12.81687 z m 102.74627,11.53254 c -8.67917,-1.43473 -18.48436,-7.14578 -25.7663,-14.61319 -5.84068,-5.98945 -9.57859,-12.11582 -12.19745,-19.99151 -1.7109,-5.14517 -1.90276,-6.75428 -1.91714,-16.07989 -0.0146,-9.53596 0.14211,-10.8187 1.9659,-16.0799 5.66367,-16.33829 19.52629,-29.34701 35.85307,-33.64464 6.10759,-1.60769 17.86687,-1.62265 24.41195,-0.0312 2.72424,0.66246 7.6597,2.5489 10.9677,4.19209 8.332,4.1388 17.53864,13.32205 21.83022,21.77477 9.41327,18.54044 7.24213,40.61161 -5.55631,56.48454 l -3.60148,4.46665 h 9.93842 c 12.22694,0 12.82284,0.31393 12.76881,7.39317 -0.0637,8.34765 2.57662,7.1288 -33.49702,7.06284 -11.1815,-0.18702 -24.88318,-0.0216 -35.20037,-0.93375 z m 19.39258,-14.59076 c 16.13017,-4.24334 27.41259,-18.7093 27.53392,-35.30303 0.0809,-11.06103 -3.6654,-20.04884 -11.43195,-27.42678 -14.66231,-13.92866 -35.68489,-13.92866 -50.34719,0 -13.13141,12.47437 -15.33524,32.32994 -5.28565,47.62155 8.31166,12.64715 24.85375,18.96935 39.53087,15.10826 z m 58.97525,14.88538 c -0.25945,-0.26205 -0.4702,-0.98564 -0.46834,-1.60799 0.006,-2.03298 39.50707,-99.02091 40.62135,-99.73884 0.70625,-0.45501 1.31023,-0.45501 1.73225,0 1.36685,1.47368 40.54975,99.76627 40.16942,100.76732 -0.31079,0.81792 -1.76926,1.05594 -6.47009,1.05594 -5.50012,0 -6.23171,-0.16442 -7.80574,-1.75418 -0.95526,-0.96477 -1.73679,-2.22782 -1.73679,-2.80676 0,-0.57893 -0.839,-1.71915 -1.86445,-2.5338 -1.79149,-1.42327 -2.68954,-1.4812 -22.96348,-1.4812 -14.00895,0 -21.68093,0.26776 -22.83057,0.79681 -0.9523,0.43822 -2.29804,2.06575 -2.99051,3.61673 -0.69246,1.55096 -1.81785,3.122 -2.50085,3.49116 -1.40829,0.76123 -12.17037,0.92385 -12.8922,0.19481 z m 57.13924,-21.39722 c 0.6156,-0.23858 1.11926,-1.02429 1.11926,-1.74603 0,-1.39785 -16.03964,-43.52513 -16.93624,-44.48215 -0.2918,-0.31145 -0.8482,-0.15066 -1.23645,0.35735 -0.38825,0.50798 -4.45997,10.70613 -9.04827,22.66256 -7.85921,20.47996 -8.26774,21.79407 -7.05388,22.6905 0.97919,0.72319 4.97834,0.95157 16.66237,0.95157 8.45567,0 15.87762,-0.19519 16.49321,-0.4338 z"
         sodipodi:nodetypes="ssssssssssssssssssssscsscsssssscssccssssssscssssssssssssssssssss" />
      <path
         id="path922"
         style="fill:#1d2021;fill-opacity:1;stroke-width:0.456371"
         d="M 54.230488,217.08773 C 33.894055,213.81235 16.798622,200.53282 8.6778373,181.70291 3.1100062,168.79265 2.2687891,153.49073 6.3802676,139.90969 17.000183,104.82994 56.438687,87.650449 89.279516,103.79864 c 16.479844,8.10331 28.207824,23.37943 32.212274,41.95767 1.185,5.49766 1.185,18.3519 0,23.84955 -5.4185,25.13858 -24.837254,43.66495 -49.778113,47.4906 -5.182271,0.79489 -12.516239,0.79124 -17.483189,-0.008 z m 10.909571,-32.41782 c 0.897554,-0.79594 2.004514,-2.18907 2.459903,-3.09585 1.061001,-2.11271 3.341585,-9.34031 4.391465,-13.91745 l 0.815316,-3.55449 h 9.803775 9.803765 l 1.286207,4.16728 c 2.244582,7.27247 5.462196,10.03686 9.27054,7.96476 2.51667,-1.36931 4.95217,-7.33783 6.58818,-16.14519 l 0.27687,-1.49059 h -6.56456 c -6.43952,0 -6.568779,-0.0197 -6.78543,-1.03195 -0.121476,-0.56757 -0.856533,-4.3342 -1.633455,-8.37028 -3.475286,-18.0537 -6.234914,-25.41766 -10.143326,-27.06701 -5.551845,-2.34288 -8.813108,4.10729 -13.980733,27.6512 l -1.940241,8.83978 -7.224941,-0.12552 -7.224951,-0.12554 -1.992909,-7.10901 c -3.162585,-11.28146 -6.1065,-16.59257 -9.559822,-17.24688 -2.959539,-0.56076 -5.76866,1.62889 -8.131514,6.33833 -1.568811,3.12681 -2.220515,4.96762 -4.267865,12.05517 l -1.722342,5.96239 -6.629894,0.12692 c -5.923913,0.11341 -6.629821,0.21109 -6.629296,0.91729 3.2e-4,0.4347 0.496091,2.85427 1.101703,5.37681 1.934881,8.05926 3.881645,11.39363 6.996768,11.98386 3.364971,0.63759 5.943135,-2.32333 8.02828,-9.22018 l 0.974207,-3.22232 h 8.976916 8.976895 l 1.538251,5.40489 c 0.846041,2.97268 2.153655,6.8979 2.90581,8.72268 2.951109,7.15972 6.641479,9.39884 10.236428,6.2109 z m -4.014831,-4.88111 c -0.659847,-0.73639 -4.319101,-11.21004 -5.039913,-14.4254 l -0.282738,-1.26128 h 5.91206 c 3.251637,0 5.910154,0.0516 5.907835,0.11466 -0.03566,0.96659 -3.37332,12.81968 -4.035733,14.33213 -0.996738,2.2758 -1.366436,2.46201 -2.461511,1.23989 z m -37.943531,-9.60963 c -0.430519,-1.07178 -1.854178,-5.61309 -1.869154,-5.96239 -0.0031,-0.063 1.345492,-0.11466 2.996016,-0.11466 h 3.000932 l -0.295426,1.26128 c -1.083862,4.62731 -1.676735,6.07705 -2.485269,6.07705 -0.491288,0 -1.050921,-0.52401 -1.347099,-1.26128 z m 76.309819,0.48632 c -0.240995,-0.45668 -0.675647,-1.75907 -0.965889,-2.89421 -0.290242,-1.13516 -0.631503,-2.42509 -0.758339,-2.86654 -0.203231,-0.70725 0.12798,-0.80262 2.787762,-0.80262 h 3.01838 l -0.31895,1.49059 c -1.00556,4.69941 -2.73188,7.02661 -3.762964,5.07278 z M 34.022664,158.29572 c 0,-0.94682 3.34878,-11.48581 4.624947,-14.55518 2.383457,-5.73261 3.788018,-5.85987 5.924852,-0.53678 1.043417,2.59927 4.435784,14.14394 4.435784,15.09556 0,0.16449 -3.371763,0.29906 -7.492786,0.29906 -4.121043,0 -7.492797,-0.1362 -7.492797,-0.30266 z m 40.140362,-0.49998 c 0.13201,-0.44144 0.965075,-4.12826 1.85125,-8.19295 2.110984,-9.68255 4.606611,-18.82376 5.615222,-20.568 2.284944,-3.95144 3.873668,-0.006 7.8113,19.39754 0.98975,4.87726 1.799541,9.15984 1.799541,9.51689 0,0.53708 -1.494859,0.64916 -8.65866,0.64916 -8.035041,0 -8.641385,-0.0578 -8.418653,-0.80264 z" />
    </g>
  </g>
</svg>
